HIERARCHY
ROOT hip
{
	OFFSET 0.000000 0.000000 0.000000
	CHANNELS 6 Xposition Yposition Zposition Xrotation Zrotation Yrotation 
	JOINT abdomen
	{
		OFFSET 0.000000 3.422050 0.000000
		CHANNELS 3 Xrotation Zrotation Yrotation 
		JOINT chest
		{
			OFFSET 0.000000 8.486693 -0.684411
			CHANNELS 3 Xrotation Zrotation Yrotation 
			JOINT neck
			{
				OFFSET 0.000000 10.266162 -0.273764
				CHANNELS 3 Xrotation Zrotation Yrotation 
				JOINT head
				{
					OFFSET 0.000000 3.148285 0.000000
					CHANNELS 3 Xrotation Zrotation Yrotation 
					End Site
					{
						OFFSET 0.000000 3.148289 0.000000
					}
				}
			}
			JOINT lCollar
			{
				OFFSET 3.422053 6.707223 -0.821293
				CHANNELS 3 Yrotation Zrotation Xrotation 
				JOINT lShldr
				{
					OFFSET 3.285171 0.000000 0.000000
					CHANNELS 3 Zrotation Yrotation Xrotation 
					JOINT lForeArm
					{
						OFFSET 10.129278 0.000000 0.000000
						CHANNELS 3 Yrotation Zrotation Xrotation 
						JOINT lHand
						{
							OFFSET 8.486692 0.000000 0.000000
							CHANNELS 3 Zrotation Yrotation Xrotation 
							End Site
							{
								OFFSET 4.106464 0.000000 0.000000
							}
						}
					}
				}
			}
			JOINT rCollar
			{
				OFFSET -3.558935 6.707223 -0.821293
				CHANNELS 3 Yrotation Zrotation Xrotation 
				JOINT rShldr
				{
					OFFSET -3.148289 0.000000 0.000000
					CHANNELS 3 Zrotation Yrotation Xrotation 
					JOINT rForeArm
					{
						OFFSET -10.266159 0.000000 0.000000
						CHANNELS 3 Yrotation Zrotation Xrotation 
						JOINT rHand
						{
							OFFSET -8.349810 0.000000 0.000000
							CHANNELS 3 Zrotation Yrotation Xrotation 
							End Site
							{
								OFFSET -4.106464 0.000000 0.000000
							}
						}
					}
				}
			}
		}
	}
	JOINT lThigh
	{
		OFFSET 5.338403 -1.642589 1.368821
		CHANNELS 3 Xrotation Zrotation Yrotation 
		JOINT lShin
		{
			OFFSET -2.053232 -20.121670 0.000000
			CHANNELS 3 Xrotation Zrotation Yrotation 
			JOINT lFoot
			{
				OFFSET 0.000000 -19.300380 -1.231939
				CHANNELS 3 Xrotation Yrotation Zrotation 
				End Site
				{
					OFFSET 0.000000 -2.463878 4.653993
				}
			}
		}
	}
	JOINT rThigh
	{
		OFFSET -5.338403 -1.642589 1.368821
		CHANNELS 3 Xrotation Zrotation Yrotation 
		JOINT rShin
		{
			OFFSET 2.053232 -20.121670 0.000000
			CHANNELS 3 Xrotation Zrotation Yrotation 
			JOINT rFoot
			{
				OFFSET 0.000000 -19.300380 -1.231939
				CHANNELS 3 Xrotation Yrotation Zrotation 
				End Site
				{
					OFFSET 0.000000 -2.463878 4.653993
				}
			}
		}
	}
}
MOTION
Frames: 11
Frame Time: 0.033264
0.820027 21.033054 12.725191 -13.498864 -0.002745 -179.999680 -3.927557 -0.000850 -0.246947 20.652243 -0.020651 -0.003763 33.180424 0.000000 0.000000 -10.471704 -5.002503 -0.002957 -9.384522 -27.168371 -0.056568 -21.381071 -38.101830 -4.084808 -30.769384 -50.803905 19.817558 68.739281 -21.239914 -20.399618 4.965827 25.377642 -2.273731 21.127100 40.337765 -4.837796 41.090069 53.785469 10.903925 -37.445663 -8.236824 -56.659206 -32.508553 12.664433 9.341418 113.164360 3.627818 0.382612 50.098854 8.374945 -15.515094 -31.316668 -10.860007 -13.450504 112.153412 -3.336487 -0.221290 49.058804 -13.040389 15.241076 
0.820027 21.029600 12.762589 -14.000054 -0.002874 -179.999649 -4.202796 -0.000830 -0.246965 21.203920 -0.020546 -0.003846 33.589081 0.000000 0.000000 -10.236330 -5.002512 -0.002976 -8.957185 -27.414183 -0.864615 -21.381071 -38.101830 -4.084808 -31.291534 -51.190315 19.420185 68.355042 -21.789799 -19.711218 4.636700 25.593912 -3.070903 21.127100 40.337765 -4.837796 41.981533 54.209694 10.188765 -37.482765 -8.326418 -55.899044 -33.171421 12.696600 9.349766 113.164360 3.627818 0.382612 50.098854 8.374945 -15.515094 -31.968956 -10.913294 -13.483120 112.181992 -3.337609 -0.222141 49.058804 -13.040389 15.241076 
0.820027 21.026146 12.799985 -14.501203 -0.003003 -179.999619 -4.478029 -0.000811 -0.246983 21.755548 -0.020440 -0.003928 33.997101 0.000000 0.000000 -10.001075 -5.002518 -0.002995 -8.532990 -27.665222 -1.672096 -21.381071 -38.101830 -4.084808 -31.822367 -51.574394 19.013840 67.962280 -22.335213 -19.016335 4.310441 25.814215 -3.867893 21.127100 40.337765 -4.837796 42.891148 54.627190 9.455017 -37.521069 -8.415504 -55.138775 -33.834263 12.728850 9.357730 113.164360 3.627818 0.382612 50.098854 8.374945 -15.515094 -32.621246 -10.966935 -13.515116 112.210594 -3.338730 -0.222993 49.058804 -13.040389 15.241076 
0.820027 21.022692 12.837381 -15.002297 -0.003131 -179.999588 -4.753252 -0.000792 -0.247001 22.307098 -0.020333 -0.004009 32.361275 0.186690 0.632123 -11.051768 -4.722845 -0.391836 -8.112085 -27.921402 -2.478895 -21.381071 -38.101830 -4.084808 -32.362053 -51.956009 18.598309 67.560944 -22.875965 -18.314888 3.987161 26.038492 -4.664615 21.127100 40.337765 -4.837796 43.819199 55.037720 8.702398 -37.560562 -8.504056 -54.378487 -34.497070 12.761186 9.365313 113.164360 3.627818 0.382612 50.098854 8.374945 -15.515094 -33.273479 -11.020915 -13.546483 112.239174 -3.339850 -0.223845 49.058804 -13.040389 15.241076 
0.820027 21.019238 12.874778 -15.503308 -0.003260 -179.999557 -5.028462 -0.000773 -0.247019 22.858543 -0.020225 -0.004089 30.714638 0.393030 1.263610 -12.107533 -4.449408 -0.786960 -7.694606 -28.182596 -3.284883 -21.381071 -38.101830 -4.084808 -32.910801 -52.335110 18.173414 67.151001 -23.411884 -17.606829 3.666959 26.266644 -5.460963 21.127100 40.337765 -4.837796 44.765965 55.440994 7.930624 -37.601234 -8.592049 -53.618210 -35.159767 12.793594 9.372508 113.164360 3.627818 0.382612 50.098854 8.374945 -15.515094 -33.925644 -11.075232 -13.577226 112.267776 -3.340971 -0.224698 49.058804 -13.040389 15.241076 
0.820027 21.015783 12.912174 -16.004227 -0.003388 -179.999527 -5.303657 -0.000754 -0.247037 23.409864 -0.020117 -0.004168 29.058046 0.619160 1.893572 -13.168184 -4.182438 -1.188218 -7.280692 -28.448704 -4.089945 -21.381071 -38.101830 -4.084808 -33.468800 -52.711624 17.738977 66.732414 -23.942785 -16.892099 3.349938 26.498594 -6.256849 21.127100 40.337765 -4.837796 45.731682 55.836727 7.139459 -37.643074 -8.679464 -52.858044 -35.822330 12.826075 9.379321 113.164360 3.627818 0.382612 50.098854 8.374945 -15.515094 -34.577671 -11.129866 -13.607326 112.296349 -3.342090 -0.225552 49.058804 -13.040389 15.241076 
0.820027 21.012329 12.949571 -16.505032 -0.003515 -179.999481 -5.578833 -0.000736 -0.247055 23.961033 -0.020007 -0.004246 27.392387 0.865167 2.521105 -14.233523 -3.922162 -1.595455 -6.870474 -28.719604 -4.893969 -21.381071 -38.101830 -4.084808 -34.036259 -53.085430 17.294783 66.305107 -24.468498 -16.170637 3.036193 26.734238 -7.052178 21.127100 40.337765 -4.837796 46.716549 56.224617 6.328678 -37.686069 -8.766275 -52.098022 -36.484703 12.858612 9.385743 113.164360 3.627818 0.382612 50.098854 8.374945 -15.515094 -35.229534 -11.184813 -13.636788 112.324951 -3.343210 -0.226406 49.058804 -13.040389 15.241076 
0.820027 21.008875 12.986967 -17.005699 -0.003643 -179.999466 -5.853986 -0.000717 -0.247073 24.512020 -0.019898 -0.004322 25.718550 1.131077 3.145291 -15.303340 -3.668793 -2.008501 -6.464084 -28.995171 -5.696833 -21.381071 -38.101830 -4.084808 -34.613380 -53.456448 16.840633 65.869087 -24.988825 -15.442397 2.725822 26.973495 -7.846858 21.127100 40.337765 -4.837796 47.720810 56.604424 5.498095 -37.730217 -8.852464 -51.338238 -37.146839 12.891205 9.391777 113.164360 3.627818 0.382612 50.098854 8.374945 -15.515094 -35.881199 -11.240063 -13.665608 112.353539 -3.344329 -0.227260 49.058804 -13.040389 15.241076 
0.820027 21.005421 13.024364 -17.506216 -0.003770 -179.999420 -6.129115 -0.000698 -0.247091 25.062801 -0.019787 -0.004398 24.037451 1.416857 3.765203 -16.377417 -3.422550 -2.427180 -6.061650 -29.275288 -6.498436 -21.381071 -38.101830 -4.084808 -35.200329 -53.824535 16.376314 65.424294 -25.503595 -14.707332 2.418921 27.216270 -8.640806 21.127100 40.337765 -4.837796 48.744610 56.975834 4.647532 -37.775497 -8.938008 -50.578751 -37.808712 12.923847 9.397425 113.164360 3.627818 0.382612 50.098854 8.374945 -15.515094 -36.532604 -11.295596 -13.693769 112.382126 -3.345447 -0.228116 49.058804 -13.040389 15.241076 
0.820027 21.001966 13.061760 -18.006561 -0.003896 -179.999374 -6.404212 -0.000680 -0.247110 25.613361 -0.019676 -0.004473 22.350012 1.722415 4.379914 -17.455544 -3.183639 -2.851305 -5.663294 -29.559813 -7.298664 -21.381071 -38.101830 -4.084808 -35.797371 -54.189663 15.901646 64.970757 -26.012640 -13.965417 2.115582 27.462465 -9.433930 21.127100 40.337765 -4.837796 49.788071 57.338566 3.776876 -37.821880 -9.022882 -49.819603 -38.470257 12.956530 9.402680 113.164360 3.627818 0.382612 50.098854 8.374945 -15.515094 -37.183735 -11.351411 -13.721277 112.410706 -3.346565 -0.228971 49.058804 -13.040389 15.241076 
0.820027 20.998512 13.099156 -18.506706 -0.004022 -179.999344 -6.679280 -0.000661 -0.247128 26.163656 -0.019564 -0.004546 20.657160 2.047595 4.988494 -18.537468 -2.952260 -3.280680 -5.269139 -29.848631 -8.097419 -21.381071 -38.101830 -4.084808 -36.404663 -54.551689 15.416411 64.508400 -26.515759 -13.216606 1.815892 27.711981 -10.226149 21.127100 40.337765 -4.837796 50.851265 57.692287 2.886042 -37.869370 -9.107064 -49.060879 -39.131454 12.989251 9.407548 113.164360 3.627818 0.382612 50.098854 8.374945 -15.515094 -37.834518 -11.407489 -13.748122 112.439308 -3.347683 -0.229828 49.058804 -13.040389 15.241076 
